<svg id="Capa_1" enable-background="new 0 0 510 510" height="512" viewBox="0 0 510 510" width="512" xmlns="http://www.w3.org/2000/svg"><g><path d="m468.505 325.18c7.628-22.556 11.495-46.133 11.495-70.36 0-58.765-22.884-114.011-64.437-155.563s-96.798-64.437-155.563-64.437h-10c-58.765 0-114.011 22.884-155.563 64.437s-64.437 96.798-64.437 155.563c0 24.227 3.867 47.804 11.495 70.36h-41.495v150h510v-150zm-408.505-70.36c0-104.767 85.233-190 190-190h10c104.767 0 190 85.233 190 190 0 24.398-4.53 48.021-13.458 70.36h-45.985c-3.799-19.863-12.581-38.614-25.654-54.301-14.012-16.814-32.061-29.222-52.155-36.311 15.352-14.898 24.919-35.726 24.919-58.757 0-45.174-36.751-81.925-81.925-81.925-45.173 0-81.924 36.751-81.924 81.925 0 22.879 9.438 43.587 24.612 58.464-20.193 6.958-38.375 19.27-52.509 36.008l-.323.384c-13.271 15.716-22.2 34.536-26.086 54.513h-46.054c-8.928-22.339-13.458-45.962-13.458-70.36zm195.743-27.085c-28.631 0-51.924-23.293-51.924-51.924 0-28.632 23.293-51.925 51.924-51.925 28.632 0 51.925 23.293 51.925 51.925 0 28.631-23.293 51.924-51.925 51.924zm17.046 30c26.761 0 51.936 11.791 69.067 32.35 8.56 10.271 14.657 22.296 17.965 35.096h-209.547c3.379-12.842 9.573-24.886 18.25-35.161l.324-.384c17.119-20.273 42.156-31.9 68.69-31.9h35.251zm207.211 187.445h-450v-90h450z"/><path d="m240 385.18h30v30h-30z"/><path d="m165 385.18h30v30h-30z"/><path d="m90 385.18h30v30h-30z"/><path d="m315 385.18h30v30h-30z"/><path d="m390 385.18h30v30h-30z"/></g></svg>